<svg width="44" height="44" viewBox="0 0 44 44" fill="none" xmlns="http://www.w3.org/2000/svg">
<rect width="44" height="44" fill="#353467"/>
<path d="M14.5625 16.1917V34.325C14.5625 34.8208 15.0583 35.1041 15.4833 34.8916L16.8292 34.1125C17.0417 34.0416 17.2542 34.0416 17.3958 34.1125L19.3792 35.175C19.5917 35.2458 19.8042 35.2458 19.9458 35.175L21.9292 34.1125C22.1417 34.0416 22.3542 34.0416 22.4958 34.1125L24.4792 35.175C24.6917 35.2458 24.9042 35.2458 25.0458 35.175L27.0292 34.1125C27.2417 34.0416 27.4542 34.0416 27.5958 34.1125L28.9417 34.8916C29.3667 35.1041 29.8625 34.8208 29.8625 34.325V16.1917H14.5625ZM20.6542 23.7H19.3083C18.1042 23.7 17.1125 22.7083 17.1125 21.5041C17.1125 20.3708 17.9625 19.45 19.0958 19.3083V18.8125C19.0958 18.3166 19.5208 17.8917 20.0167 17.8917C20.5125 17.8917 20.9375 18.3166 20.9375 18.8125V19.2375H22.0708C22.5667 19.2375 22.9917 19.6625 22.9917 20.1583C22.9917 20.6541 22.5667 21.0791 22.0708 21.0791H19.45C19.2375 21.0791 19.025 21.2916 19.025 21.5041C19.025 21.7166 19.2375 21.9291 19.45 21.9291H20.7958C22 21.9291 22.9917 22.9208 22.9917 24.125C22.9917 25.2583 22.1417 26.1791 21.0083 26.3208V26.8166C21.0083 27.3125 20.5833 27.7375 20.0875 27.7375C19.5917 27.7375 19.1667 27.3125 19.1667 26.8166V26.3916H18.0333C17.5375 26.3916 17.1125 25.9666 17.1125 25.4708C17.1125 24.975 17.5375 24.55 18.0333 24.55H20.6542C20.8667 24.55 21.0792 24.3375 21.0792 24.125C21.0792 23.8416 20.8667 23.7 20.6542 23.7ZM27.6667 31.2083H17.75C17.2542 31.2083 16.8292 30.7833 16.8292 30.2875C16.8292 29.7916 17.2542 29.3666 17.75 29.3666H27.6667C28.1625 29.3666 28.5875 29.7916 28.5875 30.2875C28.5875 30.8541 28.1625 31.2083 27.6667 31.2083ZM27.6667 27.6666H25.5417C25.0458 27.6666 24.6208 27.2416 24.6208 26.7458C24.6208 26.25 25.0458 25.825 25.5417 25.825H27.6667C28.1625 25.825 28.5875 26.25 28.5875 26.7458C28.5875 27.3125 28.1625 27.6666 27.6667 27.6666ZM27.6667 24.125H25.5417C25.0458 24.125 24.6208 23.7 24.6208 23.2041C24.6208 22.7083 25.0458 22.2833 25.5417 22.2833H27.6667C28.1625 22.2833 28.5875 22.7083 28.5875 23.2041C28.5875 23.7708 28.1625 24.125 27.6667 24.125ZM27.6667 20.5833H25.5417C25.0458 20.5833 24.6208 20.1583 24.6208 19.6625C24.6208 19.1667 25.0458 18.7416 25.5417 18.7416H27.6667C28.1625 18.7416 28.5875 19.1667 28.5875 19.6625C28.5875 20.2291 28.1625 20.5833 27.6667 20.5833Z" fill="#F9F9FA"/>
<path d="M32.9791 9.4624H11.7291C10.1708 9.4624 8.89581 10.7374 8.89581 12.2957V17.2541C8.89581 18.8124 10.1708 20.0874 11.7291 20.0874H12.0833C12.2958 20.0874 12.4375 19.9457 12.4375 19.7332V14.7749C12.4375 14.5624 12.5791 14.4207 12.7916 14.4207H31.9166C32.1291 14.4207 32.2708 14.5624 32.2708 14.7749V19.7332C32.2708 19.9457 32.4125 20.0874 32.625 20.0874H32.9791C34.5375 20.0874 35.8125 18.8124 35.8125 17.2541V12.2957C35.8125 10.7374 34.5375 9.4624 32.9791 9.4624Z" fill="#F9F9FA"/>
</svg>
