<svg width="44" height="44" viewBox="0 0 44 44" fill="none" xmlns="http://www.w3.org/2000/svg">
<rect width="44" height="44" fill="#353467"/>
<path d="M17.6792 26.0375C17.6084 25.8958 17.4667 25.825 17.325 25.825H15.625C12.5792 25.825 10.1 28.3041 10.1 31.35V33.8292C10.1 34.2542 10.4542 34.6792 10.95 34.6792H20.0875C20.3 34.6792 20.5125 34.4667 20.4417 34.1833L17.6792 26.0375ZM29.1542 25.7541H27.4542C27.3126 25.7541 27.1709 25.825 27.1001 25.9666L24.4792 34.1125C24.4084 34.325 24.5501 34.6083 24.8334 34.6083H33.9001C34.3251 34.6083 34.7501 34.2542 34.7501 33.7583V31.2792C34.6792 28.2333 32.2001 25.7541 29.1542 25.7541ZM29.1542 16.8999C29.1542 13.1457 26.1084 10.0999 22.3542 10.0999C18.6 10.0999 15.5542 13.1457 15.5542 16.8999C15.5542 20.6541 18.6 23.6999 22.3542 23.6999C26.1084 23.6999 29.1542 20.6541 29.1542 16.8999Z" fill="#F9F9FA"/>
<path d="M22.3542 25.9668C21.7875 25.9668 21.2917 26.4626 21.2917 27.0293V32.6961C21.2917 33.2628 21.7875 33.7586 22.3542 33.7586C22.9209 33.7586 23.4167 33.2628 23.4167 32.6961V27.0293C23.4167 26.4626 22.9209 25.9668 22.3542 25.9668Z" fill="#F9F9FA"/>
</svg>
