<svg width="44" height="44" viewBox="0 0 44 44" fill="none" xmlns="http://www.w3.org/2000/svg">
<rect width="44" height="44" fill="#353467"/>
<path d="M22 17.7499H29.7917C30.2875 17.7499 30.6417 17.3249 30.6417 16.8291C30.6417 16.3333 30.2167 15.9791 29.7917 15.9791H22C21.5042 15.9791 21.0792 16.4041 21.0792 16.8291C21.0792 17.3249 21.5042 17.7499 22 17.7499ZM14.9167 24.8333H29.7917C30.2875 24.8333 30.6417 24.4083 30.6417 23.9124C30.6417 23.4166 30.2167 22.9916 29.7917 22.9916H14.9167C14.4209 22.9916 13.9959 23.4166 13.9959 23.9124C13.9959 24.4083 14.4209 24.8333 14.9167 24.8333ZM37.3708 28.7999L35.8125 28.2333V12.4374C35.8125 11.6583 35.175 11.0208 34.3958 11.0208H10.3125C9.53335 11.0208 8.89585 11.6583 8.89585 12.4374V28.3041L7.33752 28.8708C6.77085 29.0833 6.41669 29.5791 6.41669 30.2166V32.3416C6.41669 33.1208 7.05419 33.7583 7.83335 33.7583H36.875C37.6542 33.7583 38.2917 33.1208 38.2917 32.3416V30.2166C38.2917 29.5083 37.8667 29.0124 37.3708 28.7999ZM24.125 31.4916H20.5834C20.0167 31.4916 19.5209 30.9958 19.5209 30.4291C19.5209 29.8624 20.0167 29.3666 20.5834 29.3666H24.125C24.6917 29.3666 25.1875 29.8624 25.1875 30.4291C25.1875 31.0666 24.6917 31.4916 24.125 31.4916ZM32.9792 27.3124H11.7292V13.8541H32.9792V27.3124ZM22 21.2916H29.7917C30.2875 21.2916 30.6417 20.8666 30.6417 20.3708C30.6417 19.8749 30.2167 19.4499 29.7917 19.4499H22C21.5042 19.4499 21.0792 19.8749 21.0792 20.3708C21.0792 20.8666 21.5042 21.2916 22 21.2916Z" fill="#F9F9FA"/>
<path d="M18.1042 15.7666H15.2708C14.8458 15.7666 14.5625 16.0499 14.5625 16.4749V20.0166C14.5625 20.4416 14.8458 20.7249 15.2708 20.7249H18.1042C18.5292 20.7249 18.8125 20.4416 18.8125 20.0166V16.4749C18.8125 16.1208 18.5292 15.7666 18.1042 15.7666Z" fill="#F9F9FA"/>
</svg>
