<svg width="44" height="44" viewBox="0 0 44 44" fill="none" xmlns="http://www.w3.org/2000/svg">
<path d="M17.6792 28.7592C17.6084 28.6032 17.4667 28.5252 17.325 28.5252H15.625C12.5792 28.5252 10.1 31.2561 10.1 34.6113V37.3422C10.1 37.8104 10.4542 38.2786 10.95 38.2786H20.0875C20.3 38.2786 20.5125 38.0445 20.4417 37.7324L17.6792 28.7592ZM29.1542 28.4471H27.4542C27.3126 28.4471 27.1709 28.5252 27.1001 28.6812L24.4792 37.6543C24.4084 37.8884 24.5501 38.2005 24.8334 38.2005H33.9001C34.3251 38.2005 34.7501 37.8104 34.7501 37.2642V34.5333C34.6792 31.1781 32.2001 28.4471 29.1542 28.4471ZM29.1542 18.6937C29.1542 14.5583 26.1084 11.2031 22.3542 11.2031C18.6 11.2031 15.5542 14.5583 15.5542 18.6937C15.5542 22.8292 18.6 26.1843 22.3542 26.1843C26.1084 26.1843 29.1542 22.8292 29.1542 18.6937Z" fill="#F9F9FA"/>
<path d="M22.3542 28.6814C21.7875 28.6814 21.2917 29.2276 21.2917 29.8518V36.0941C21.2917 36.7183 21.7875 37.2645 22.3542 37.2645C22.9209 37.2645 23.4167 36.7183 23.4167 36.0941V29.8518C23.4167 29.2276 22.9209 28.6814 22.3542 28.6814Z" fill="#F9F9FA"/>
<rect width="44" height="44" fill="#353467"/>
<path d="M23.275 9.25H8.39998C7.97498 9.25 7.69165 9.53333 7.69165 9.95833V23.4167C7.69165 23.8417 7.97498 24.125 8.39998 24.125H23.275C23.7 24.125 23.9833 23.8417 23.9833 23.4167V9.95833C23.9833 9.53333 23.6291 9.25 23.275 9.25ZM12.65 20.2292C12.65 20.7958 12.1541 21.2917 11.5875 21.2917C11.0208 21.2917 10.525 20.7958 10.525 20.2292V13.1458C10.525 12.5792 11.0208 12.0833 11.5875 12.0833C12.1541 12.0833 12.65 12.5792 12.65 13.1458V20.2292ZM16.9 20.2292C16.9 20.7958 16.4041 21.2917 15.8375 21.2917C15.2708 21.2917 14.775 20.7958 14.775 20.2292V13.1458C14.775 12.5792 15.2708 12.0833 15.8375 12.0833C16.4041 12.0833 16.9 12.5792 16.9 13.1458V20.2292ZM21.15 20.2292C21.15 20.7958 20.6541 21.2917 20.0875 21.2917C19.5208 21.2917 19.025 20.7958 19.025 20.2292V13.1458C19.025 12.5792 19.5208 12.0833 20.0875 12.0833C20.6541 12.0833 21.15 12.5792 21.15 13.1458V20.2292Z" fill="#F9F9FA"/>
<path d="M17.6083 29.4376C17.0417 29.4376 16.5458 29.9334 16.5458 30.5001C16.5458 31.0667 17.0417 31.5626 17.6083 31.5626C18.175 31.5626 18.6708 31.0667 18.6708 30.5001C18.6708 29.9334 18.175 29.4376 17.6083 29.4376ZM36.9458 23.0626L34.4667 16.4042C34.2542 15.8376 33.7583 15.4834 33.1208 15.4834H27.1C26.3208 15.4834 25.6833 16.1209 25.6833 16.9001V26.5334H20.5833C19.7333 25.8959 18.6708 25.4709 17.5375 25.4709C16.4042 25.4709 15.3417 25.8959 14.4917 26.5334H11.5167C11.375 26.5334 11.2333 26.6751 11.2333 26.8876V30.1459C11.2333 30.3584 11.375 30.5001 11.5167 30.5001H12.65C12.65 33.2626 14.8458 35.4584 17.6083 35.4584C20.3708 35.4584 22.5667 33.2626 22.5667 30.5001H24.6917C24.6917 33.2626 26.8875 35.4584 29.65 35.4584C32.4125 35.4584 34.6083 33.2626 34.6083 30.5001V30.4292H35.6708C36.45 30.4292 37.0875 29.7917 37.0875 29.0126V23.6292C37.0875 23.4167 37.0167 23.2042 36.9458 23.0626ZM17.6083 33.3334C16.05 33.3334 14.775 32.0584 14.775 30.5001C14.775 28.9417 16.05 27.6667 17.6083 27.6667C19.1667 27.6667 20.4417 28.9417 20.4417 30.5001C20.4417 32.0584 19.1667 33.3334 17.6083 33.3334ZM29.65 33.3334C28.0917 33.3334 26.8167 32.0584 26.8167 30.5001C26.8167 28.9417 28.0917 27.6667 29.65 27.6667C31.2083 27.6667 32.4833 28.9417 32.4833 30.5001C32.4833 32.0584 31.2083 33.3334 29.65 33.3334ZM33.6875 22.5667L28.1625 21.9292C27.95 21.9292 27.8792 21.7876 27.8792 21.5751V18.6709C27.8792 18.4584 28.0208 18.3167 28.2333 18.3167H32.5542C32.6958 18.3167 32.8375 18.3876 32.9083 18.5292L34.0417 22.0001C34.1125 22.3542 33.9 22.5667 33.6875 22.5667ZM29.65 29.4376C29.0833 29.4376 28.5875 29.9334 28.5875 30.5001C28.5875 31.0667 29.0833 31.5626 29.65 31.5626C30.2167 31.5626 30.7125 31.0667 30.7125 30.5001C30.7125 29.9334 30.2167 29.4376 29.65 29.4376Z" fill="#F9F9FA"/>
</svg>
