<svg width="31" height="44" viewBox="0 0 31 44" fill="none" xmlns="http://www.w3.org/2000/svg">
<path d="M30.8166 7.33333L23.6627 0.183333C23.571 0.0916667 23.571 0.0916667 23.4793 0C23.3876 0 23.2959 0 23.2959 0H5.68639C5.31953 0 5.04438 0.275 5.04438 0.641667V4.21667H0.642012C0.275148 4.21667 0 4.49167 0 4.85833V43.3583C0 43.725 0.275148 44 0.642012 44H26.1391C26.5059 44 26.7811 43.725 26.7811 43.3583V39.325H30.358C30.7249 39.325 31 39.05 31 38.6833V30.1583V27.225V7.79167C31 7.60833 30.9083 7.425 30.8166 7.33333ZM23.8462 2.29167L28.7071 7.15H23.8462V2.29167ZM25.497 42.625H1.37574V5.5H5.04438V38.5917C5.04438 38.9583 5.31953 39.2333 5.68639 39.2333H25.4053V42.625H25.497ZM29.6243 38.0417H6.3284V1.375H22.4704V7.88333C22.4704 8.25 22.7456 8.525 23.1124 8.525H29.6243V27.225V30.1583V38.0417Z" fill="#1E3551"/>
<path d="M25.5888 12.4667H16.9675C16.6006 12.4667 16.3254 12.7417 16.3254 13.1083C16.3254 13.475 16.6006 13.75 16.9675 13.75H25.5888C25.9556 13.75 26.2308 13.475 26.2308 13.1083C26.2308 12.7417 25.9556 12.4667 25.5888 12.4667Z" fill="#1E3551"/>
<path d="M10.4556 13.8416H13.3905C13.7574 13.8416 14.0325 13.5666 14.0325 13.2C14.0325 12.8333 13.7574 12.5583 13.3905 12.5583H10.4556C10.0887 12.5583 9.8136 12.8333 9.8136 13.2C9.8136 13.475 10.0887 13.8416 10.4556 13.8416Z" fill="#1E3551"/>
<path d="M25.5887 17.7833H22.1952C21.8284 17.7833 21.5532 18.0583 21.5532 18.425C21.5532 18.7917 21.8284 19.0667 22.1952 19.0667H25.5887C25.9556 19.0667 26.2307 18.7917 26.2307 18.425C26.2307 18.15 25.9556 17.7833 25.5887 17.7833Z" fill="#1E3551"/>
<path d="M10.4556 19.1583H18.6183C18.9852 19.1583 19.2603 18.8833 19.2603 18.5167C19.2603 18.15 18.9852 17.875 18.6183 17.875H10.4556C10.0887 17.875 9.8136 18.15 9.8136 18.5167C9.8136 18.8833 10.0887 19.1583 10.4556 19.1583Z" fill="#1E3551"/>
<path d="M25.5887 23.1H18.068C17.7012 23.1 17.426 23.375 17.426 23.7417C17.426 24.1084 17.7012 24.3834 18.068 24.3834H25.5887C25.9556 24.3834 26.2308 24.1084 26.2308 23.7417C26.2308 23.4667 25.9556 23.1 25.5887 23.1Z" fill="#1E3551"/>
<path d="M10.4556 24.475H14.4911C14.858 24.475 15.1331 24.2 15.1331 23.8334C15.1331 23.4667 14.858 23.1917 14.4911 23.1917H10.4556C10.0887 23.1917 9.8136 23.4667 9.8136 23.8334C9.8136 24.2 10.0887 24.475 10.4556 24.475Z" fill="#1E3551"/>
<path d="M20.2692 28.5084H10.4556C10.0887 28.5084 9.8136 28.7834 9.8136 29.15C9.8136 29.5167 10.0887 29.7917 10.4556 29.7917H20.2692C20.6361 29.7917 20.9112 29.5167 20.9112 29.15C20.9112 28.7834 20.6361 28.5084 20.2692 28.5084Z" fill="#1E3551"/>
<path d="M10.4556 8.4333H18.4349C18.8018 8.4333 19.0769 8.1583 19.0769 7.79163C19.0769 7.42496 18.8018 7.14996 18.4349 7.14996H10.4556C10.0887 7.14996 9.8136 7.42496 9.8136 7.79163C9.8136 8.1583 10.0887 8.4333 10.4556 8.4333Z" fill="#1E3551"/>
</svg>
